<svg width="16" height="14" viewBox="0 0 16 14" fill="none" xmlns="http://www.w3.org/2000/svg">
<path d="M10.4107 12.4874C9.59629 12.8656 8.69231 13.1118 7.74048 13.1118C4.15598 13.1118 1.25017 9.62068 1.25017 8.73362C1.25017 8.2308 2.18382 6.89131 3.64549 5.82521M13.452 10.1367C13.9487 9.53913 14.2308 9.00999 14.2308 8.73362C14.2308 7.84656 11.325 4.35549 7.74048 4.35549C9.31767 4.35549 10.5962 5.62382 10.5962 7.1884M7.74046 10.0213C6.16328 10.0213 4.88472 8.75297 4.88472 7.1884M14.75 4.35557C12.7732 2.7195 10.4653 1.7802 8.0001 1.7802C7.11158 1.7802 6.2435 1.90222 5.40397 2.13492M1.25017 4.35557C1.43341 4.20392 1.6195 4.05825 1.8083 3.91876M1.25 0.75L13.7856 13.4061" stroke="#070721" stroke-linecap="round"/>
</svg>
