<svg aria-hidden="true" style="position: absolute; width: 0; height: 0; overflow: hidden;" version="1.1" xmlns="http://www.w3.org/2000/svg" xmlns:xlink="http://www.w3.org/1999/xlink">
<defs>
<symbol id="icon-eye-crossed-1" viewBox="0 0 37 32">
<path stroke-linejoin="miter" stroke-linecap="round" stroke-miterlimit="4" stroke-width="2.2857" d="M23.796 28.543c-1.861 0.864-3.928 1.427-6.103 1.427-8.193 0-14.835-7.98-14.835-10.007 0-1.149 2.134-4.211 5.475-6.648M30.747 23.17c1.135-1.366 1.78-2.575 1.78-3.207 0-2.028-6.642-10.007-14.835-10.007 3.605 0 6.527 2.899 6.527 6.475M17.692 22.906c-3.605 0-6.527-2.899-6.527-6.475M33.714 9.956c-4.518-3.74-9.794-5.887-15.428-5.887-2.031 0-4.015 0.279-5.934 0.811M2.858 9.956c0.419-0.347 0.844-0.68 1.276-0.998M2.857 1.714l28.653 28.928"></path>
</symbol>
</defs>
</svg>
