<svg aria-hidden="true" style="position: absolute; width: 0; height: 0; overflow: hidden;" version="1.1" xmlns="http://www.w3.org/2000/svg" xmlns:xlink="http://www.w3.org/1999/xlink">
<defs>
<symbol id="icon-eye-1" viewBox="0 0 40 32">
<path stroke-linejoin="miter" stroke-linecap="round" stroke-miterlimit="4" stroke-width="2" d="M19.308 7.818c-9.559 0-17.308 9.242-17.308 11.591s7.749 11.591 17.308 11.591c9.559 0 17.308-9.243 17.308-11.591s-7.749-11.591-17.308-11.591zM19.308 7.818c-4.206 0-7.615 3.358-7.615 7.5s3.41 7.5 7.615 7.5c4.206 0 7.615-3.358 7.615-7.5s-3.41-7.5-7.616-7.5zM38 7.818c-5.272-4.331-11.426-6.818-18-6.818s-12.728 2.487-18 6.818"></path>
</symbol>
<symbol id="icon-eye-crossed" viewBox="0 0 34 32">
<path stroke-linejoin="miter" stroke-linecap="round" stroke-miterlimit="4" stroke-width="1.6842" d="M22.256 28.042c-1.829 0.849-3.859 1.402-5.996 1.402-8.049 0-14.575-7.84-14.575-9.832 0-1.129 2.097-4.137 5.379-6.531M29.085 22.763c1.115-1.342 1.749-2.53 1.749-3.151 0-1.992-6.525-9.832-14.575-9.832 3.542 0 6.413 2.848 6.413 6.362M16.259 22.504c-3.542 0-6.413-2.848-6.413-6.362M32 9.781c-4.439-3.674-9.622-5.783-15.158-5.783-1.995 0-3.945 0.274-5.83 0.797M1.685 9.781c0.411-0.341 0.829-0.668 1.253-0.981M1.684 1.684l28.15 28.421"></path>
</symbol>
</defs>
</svg>
