<svg width="16" height="16" viewBox="0 0 16 16" fill="none" xmlns="http://www.w3.org/2000/svg">
<path d="M7.82692 5.95453C5.43723 5.95453 3.5 8.26514 3.5 8.85226C3.5 9.43937 5.43723 11.75 7.82692 11.75C10.2166 11.75 12.1538 9.43937 12.1538 8.85226C12.1538 8.26514 10.2166 5.95453 7.82692 5.95453ZM7.82692 5.95453C6.77546 5.95453 5.9231 6.79399 5.9231 7.82953C5.9231 8.86506 6.77548 9.70453 7.82694 9.70453C8.87841 9.70453 9.73079 8.86506 9.73079 7.82953C9.73079 6.79399 8.87839 5.95453 7.82692 5.95453ZM12.5 5.95455C11.1821 4.87169 9.64345 4.25 8 4.25C6.35655 4.25 4.81792 4.87169 3.5 5.95455" stroke="#070721" stroke-linecap="round"/>
</svg>
