<svg width="16" height="16" viewBox="0 0 16 16" fill="none" xmlns="http://www.w3.org/2000/svg">
<path d="M9.60714 11.325C9.06419 11.5771 8.46154 11.7412 7.82699 11.7412C5.43732 11.7412 3.50011 9.41382 3.50011 8.82245C3.50011 8.48723 4.12255 7.59424 5.097 6.8835M11.6346 9.75784C11.9658 9.35945 12.1539 9.00669 12.1539 8.82245C12.1539 8.23107 10.2167 5.90369 7.82699 5.90369C8.87844 5.90369 9.7308 6.74925 9.7308 7.7923M7.82697 9.6809C6.77552 9.6809 5.92315 8.83534 5.92315 7.7923M12.5 5.90375C11.1821 4.81303 9.6435 4.18683 8.00007 4.18683C7.40772 4.18683 6.829 4.26818 6.26932 4.42331M3.50011 5.90375C3.62228 5.80264 3.74634 5.70553 3.8722 5.61254M3.5 3.50003L11.857 11.9374" stroke="#070721" stroke-linecap="round"/>
</svg>
