<svg width="32" height="32" viewBox="0 0 32 32" fill="none" xmlns="http://www.w3.org/2000/svg">
<path d="M19.2143 22.6499C18.1284 23.1542 16.9231 23.4824 15.654 23.4824C10.8746 23.4824 7.00023 18.8276 7.00023 17.6449C7.00023 16.9745 8.24509 15.1885 10.194 13.767M23.2693 19.5157C23.9316 18.7189 24.3077 18.0134 24.3077 17.6449C24.3077 16.4621 20.4333 11.8074 15.654 11.8074C17.7569 11.8074 19.4616 13.4985 19.4616 15.5846M15.6539 19.3618C13.551 19.3618 11.8463 17.6707 11.8463 15.5846M25 11.8075C22.3642 9.62606 19.287 8.37366 16.0001 8.37366C14.8154 8.37366 13.658 8.53636 12.5386 8.84662M7.00023 11.8075C7.24455 11.6053 7.49267 11.4111 7.7444 11.2251M7 7.00006L23.7141 23.8749" stroke="#070721" stroke-linecap="round"/>
</svg>
