<svg width="149" height="36" id="footer-logo" viewBox="0 0 149 36" fill="none" xmlns="http://www.w3.org/2000/svg">
    <path d="M137.893 7.16092C138.518 7.09181 139.205 7.09814 139.834 7.14485C142.286 7.32732 144.065 8.41248 145.637 10.2489C145.59 9.32605 145.537 8.41626 145.59 7.4921C146.644 7.42223 147.71 7.45532 148.767 7.45816L148.765 20.4933C148.77 23.1065 149 25.9201 148.548 28.4926C148.288 29.9779 147.767 31.4376 146.844 32.644C145.589 34.2862 144.005 34.9622 142.003 35.2193C142.726 34.3571 143.419 33.4826 143.996 32.5154C145.5 29.3539 145.524 26.2765 145.568 22.8597C144.25 24.4234 142.854 25.4748 140.804 25.8558C138.386 26.302 135.89 25.7716 133.863 24.38C131.891 23.0138 130.57 20.7382 130.161 18.3944C129.71 15.8134 130.227 13.0227 131.745 10.8692C133.263 8.71521 135.343 7.60924 137.893 7.16092ZM140.75 22.716C144.127 22.0183 146.295 18.7074 145.583 15.3322C144.872 11.9576 141.553 9.80368 138.18 10.5285C134.828 11.2493 132.688 14.5456 133.395 17.9019C134.103 21.2572 137.391 23.41 140.75 22.716Z" fill="#649179" />
    <path d="M89.3881 7.11288C94.6135 6.32912 99.4843 9.93471 100.261 15.1616C101.037 20.3889 97.4233 25.2541 92.1951 26.0227C86.9782 26.7895 82.1253 23.1855 81.351 17.9695C80.5767 12.753 84.1731 7.89503 89.3881 7.11288ZM91.8765 22.7553C95.2885 22.1389 97.5434 18.8592 96.8967 15.4528C96.251 12.0468 92.9514 9.82097 89.5507 10.4972C86.1925 11.1652 84.001 14.4147 84.6392 17.7786C85.2773 21.1424 88.5069 23.3632 91.8765 22.7553Z" fill="#649179" />
    <path d="M58.6369 7.15211C59.3798 7.11779 60.1526 7.08091 60.8885 7.20637C62.9819 7.56346 64.075 8.80831 65.2286 10.4518C65.5531 9.92241 65.9288 9.41471 66.3633 8.97046C67.5562 7.75019 69.2037 7.13367 70.8984 7.12478C72.7194 7.11523 74.5419 7.57812 75.857 8.90484C76.6644 9.73474 77.2298 10.7694 77.4935 11.8972C77.9568 13.8221 77.7583 16.0207 77.7564 17.9986L77.7621 25.2973L74.4549 25.2888L74.4493 18.2519C74.4502 16.6485 74.5967 14.873 74.2696 13.2984C74.1382 12.6678 73.8886 12.091 73.4613 11.604C72.8078 10.8588 71.7175 10.3624 70.7289 10.3334C69.5319 10.2981 68.2784 10.6149 67.4118 11.4797C66.8219 12.0683 66.4467 12.8374 66.244 13.6393C65.7505 15.5924 66.0025 19.4177 66.0094 21.5761L66.0327 25.2926L62.6918 25.3124L62.7142 18.2075C62.7207 16.6126 62.8992 14.7926 62.54 13.2412C62.3767 12.5355 62.0441 11.8635 61.5299 11.3475C60.7876 10.6027 59.784 10.3322 58.755 10.3405C57.6512 10.3494 56.5582 10.6838 55.7788 11.4947C55.1469 12.1519 54.7644 13.0393 54.5752 13.9236C54.2556 15.4166 54.3988 17.0881 54.4004 18.6112L54.4086 25.3039L51.0409 25.2897C51.2044 23.2873 51.0536 20.5928 51.0543 18.4987C51.0554 14.8418 51.1607 11.1417 51.0303 7.48943C52.1568 7.49019 53.2997 7.5316 54.4223 7.43243L54.4255 9.89981C55.6293 8.39695 56.7484 7.60232 58.6369 7.15211Z" fill="#649179" />
    <path d="M25.9292 7.16459C26.2991 7.12034 26.6908 7.12923 27.0633 7.12555C29.0972 7.10569 31.2101 7.62331 32.6909 9.0911C33.4231 9.8169 33.9164 10.7146 34.172 11.7099C34.6528 13.5827 34.4327 15.8024 34.4349 17.7264L34.4423 25.3021L31.133 25.2927L31.147 23.1238C30.1467 24.3435 28.9835 25.2501 27.4519 25.6869C25.57 26.2249 23.1091 26.0717 21.3985 25.0686C20.0113 24.2546 19.3282 23.1238 18.9052 21.6121C18.7915 20.349 18.9102 19.1474 19.6221 18.0592C21.1455 15.7287 24.2306 15.3855 26.7345 14.9544C28.2099 14.7001 29.6864 14.4628 31.147 14.1319C31.1187 13.3306 31.0021 12.5501 30.5816 11.8518C30.0905 11.0362 29.2818 10.5051 28.3655 10.2826C27.1443 9.98614 25.5963 10.101 24.5225 10.7704C23.5138 11.3992 23.0447 12.3585 22.7712 13.4724C21.6339 13.4158 20.5063 13.4409 19.3686 13.4664C19.699 12.1996 20.0216 10.9821 20.7953 9.90048C22.0616 8.13007 23.8603 7.51213 25.9292 7.16459ZM23.2142 22.4148C24.4711 23.1683 26.0465 23.2789 27.4501 22.9177C28.7044 22.5953 29.9427 21.856 30.5909 20.7035C31.236 19.5577 31.1567 18.2766 31.1451 17.0116L31.0404 16.9294C29.9489 17.0211 28.8768 17.2452 27.7977 17.4267C26.1965 17.6952 23.9667 17.7642 22.8104 19.0613C22.3633 19.5634 22.2221 20.1363 22.2784 20.7971C22.3393 21.5091 22.6942 21.9553 23.2142 22.4148Z" fill="#649179" />
    <path d="M0 0.347656C1.10228 0.400789 2.20021 0.343492 3.30116 0.382065C3.21626 3.60986 3.45073 6.86725 3.24727 10.088C3.50405 9.76396 3.75034 9.42946 4.02262 9.11813C5.10533 7.88085 6.7274 7.20553 8.35099 7.13415C10.2228 7.05189 12.073 7.478 13.4811 8.77125C14.4221 9.63556 15.0608 10.7346 15.3859 11.9675C15.8035 13.5512 15.6783 15.3283 15.6776 16.9544C15.6765 19.7255 15.5646 22.54 15.7 25.3064L12.4346 25.2931C12.3617 22.4682 12.4127 19.63 12.4053 16.8032C12.4331 15.0286 12.5652 12.9232 11.2389 11.5477C10.4185 10.6967 9.30096 10.3368 8.14044 10.3205C6.8522 10.3025 5.61057 10.6872 4.69246 11.6213C4.14524 12.1836 3.75544 12.8797 3.56219 13.64C3.13959 15.2555 3.30646 17.1662 3.30466 18.833C3.29974 20.9857 3.31033 23.1394 3.33643 25.2931L0.0388582 25.2997C0.000568274 16.9932 0.206955 8.64967 0 0.347656Z" fill="#649179" />
    <path d="M111.606 7.15754C111.92 7.14326 112.234 7.1339 112.548 7.12937C114.362 7.11159 116.181 7.60643 117.493 8.91311C118.348 9.76324 118.878 10.8601 119.155 12.0236C119.621 13.9832 119.447 16.1103 119.445 18.1137L119.447 25.3065L116.079 25.3027C116.112 23.6813 116.08 22.0523 116.09 20.429C116.102 18.368 116.362 15.1894 115.818 13.2762C115.517 12.2216 114.896 11.2524 113.901 10.7362C112.674 10.0991 111.029 10.2576 109.751 10.6653C109.235 10.9322 108.785 11.2079 108.365 11.6218C107.694 12.2837 107.394 13.0641 107.198 13.9651C106.856 15.5411 106.982 17.2571 106.983 18.8615L106.995 25.3131C105.885 25.2923 104.774 25.3065 103.664 25.3065C103.756 19.3758 103.676 13.4284 103.68 7.49516L106.99 7.491C106.996 8.33895 106.984 9.18767 106.982 10.0357C108.184 8.28138 109.583 7.6052 111.606 7.15754Z" fill="#649179" />
    <path d="M46.2509 7.1526C46.9122 7.1231 47.5772 7.13322 48.2392 7.13086C48.2621 8.33695 48.2446 9.54615 48.243 10.7525C47.9928 10.7428 47.7424 10.7347 47.492 10.7282C45.9849 10.6913 44.3535 10.8866 43.2301 12.0065C42.6354 12.5994 42.2737 13.3744 42.0815 14.1838C41.7169 15.7182 41.8355 17.4171 41.8348 18.9847L41.8554 25.303C41.2002 25.3049 39.0873 25.5422 38.5419 25.1735L38.5138 24.8388C38.3888 19.0735 38.4851 13.2765 38.5211 7.50931L41.8981 7.49003C41.8039 8.43451 41.8516 9.39573 41.8722 10.3434C43.1439 8.45711 43.9548 7.71268 46.2509 7.1526Z" fill="#649179" />
    <path d="M123.316 7.50019C124.427 7.50794 125.538 7.50794 126.649 7.5V25.3066C125.533 25.2943 124.416 25.3 123.3 25.3255C123.374 19.3863 123.317 13.4399 123.316 7.50019Z" fill="#649179" />
    <path d="M124.295 0.342264C124.704 0.318723 125.155 0.269561 125.557 0.365617C126.097 0.494952 126.605 0.888437 126.865 1.37741C127.121 1.86601 127.159 2.43942 126.97 2.95751C126.715 3.64116 126.221 3.99248 125.584 4.28641C125.155 4.31298 124.727 4.33473 124.311 4.20464C123.769 4.03531 123.284 3.64494 123.034 3.13223C122.811 2.68372 122.778 2.16496 122.942 1.69205C123.181 1.01295 123.677 0.650758 124.295 0.342264Z" fill="#649179" />
</svg>