<svg width="165" height="46" fill="none" xmlns="http://www.w3.org/2000/svg"><path d="M145.893 12.161c.625-.069 1.312-.063 1.941-.016 2.452.183 4.231 1.268 5.803 3.104-.047-.923-.1-1.833-.047-2.757 1.054-.07 2.12-.036 3.177-.034l-.002 13.036c.005 2.613.235 5.426-.217 7.999-.26 1.485-.781 2.945-1.704 4.151-1.255 1.642-2.839 2.318-4.841 2.576.723-.863 1.416-1.737 1.993-2.704 1.504-3.162 1.528-6.24 1.572-9.656-1.318 1.564-2.714 2.615-4.764 2.996a9.285 9.285 0 0 1-6.941-1.476c-1.972-1.366-3.293-3.642-3.702-5.985-.451-2.581.066-5.372 1.584-7.526 1.518-2.153 3.598-3.26 6.148-3.708zm2.857 15.555a6.228 6.228 0 1 0-2.521-12.197 6.228 6.228 0 0 0 2.521 12.197zM97.388 12.113c5.225-.784 10.096 2.821 10.873 8.048.776 5.227-2.838 10.093-8.066 10.861-5.217.767-10.07-2.837-10.844-8.053a9.559 9.559 0 0 1 8.037-10.857zm2.488 15.642a6.239 6.239 0 1 0-2.217-12.279 6.239 6.239 0 0 0 2.217 12.279zM66.636 12.153c.743-.034 1.516-.071 2.252.054 2.093.357 3.186 1.602 4.34 3.246.324-.53.7-1.037 1.134-1.482 1.193-1.22 2.84-1.836 4.535-1.845 1.821-.01 3.644.453 4.959 1.78a6.372 6.372 0 0 1 1.637 2.992c.463 1.925.264 4.124.262 6.102l.006 7.298-3.307-.008-.006-7.037c.001-1.604.148-3.38-.18-4.954-.13-.63-.38-1.207-.808-1.694-.653-.745-1.743-1.242-2.732-1.27-1.197-.036-2.45.28-3.317 1.146-.59.588-.965 1.357-1.168 2.16-.493 1.952-.242 5.778-.235 7.936l.024 3.716-3.341.02.022-7.104c.007-1.596.185-3.415-.174-4.967-.163-.706-.496-1.378-1.01-1.893-.742-.745-1.746-1.016-2.775-1.008-1.104.01-2.197.344-2.976 1.155-.632.657-1.014 1.544-1.204 2.428-.32 1.494-.176 3.165-.175 4.688l.009 6.693-3.368-.014c.163-2.003.013-4.697.013-6.791.001-3.657.107-7.357-.024-11.01 1.127.001 2.27.043 3.392-.057l.004 2.468c1.203-1.503 2.322-2.298 4.21-2.748zM33.929 12.165c.37-.044.761-.035 1.134-.039 2.034-.02 4.147.498 5.627 1.966a5.613 5.613 0 0 1 1.482 2.619c.48 1.873.26 4.092.262 6.016l.008 7.576-3.31-.01.015-2.168c-1 1.22-2.164 2.126-3.696 2.563-1.882.538-4.342.385-6.053-.619-1.387-.814-2.07-1.944-2.493-3.456-.114-1.263.005-2.465.717-3.553 1.523-2.33 4.608-2.674 7.112-3.105 1.475-.254 2.952-.491 4.413-.822-.029-.802-.145-1.582-.566-2.28-.49-.816-1.3-1.347-2.216-1.57-1.221-.296-2.77-.181-3.843.488-1.009.629-1.478 1.588-1.751 2.702-1.138-.056-2.265-.031-3.403-.006.33-1.267.653-2.484 1.427-3.566 1.266-1.77 3.065-2.388 5.134-2.736zm-2.715 15.25c1.257.754 2.832.865 4.236.504 1.254-.323 2.492-1.062 3.14-2.215.645-1.146.566-2.427.555-3.692l-.105-.082c-1.092.092-2.164.316-3.243.497-1.601.269-3.83.338-4.987 1.635-.447.502-.588 1.075-.532 1.736.06.712.416 1.158.936 1.618zM8 5.347c1.102.053 2.2-.004 3.301.034-.085 3.228.15 6.486-.054 9.706.257-.324.503-.658.776-.97 1.082-1.237 2.704-1.912 4.328-1.984 1.872-.082 3.722.344 5.13 1.638a6.564 6.564 0 0 1 1.905 3.196c.418 1.584.292 3.36.292 4.987-.002 2.77-.113 5.585.022 8.352l-3.265-.014c-.073-2.824-.022-5.663-.03-8.49.028-1.774.16-3.88-1.166-5.255-.82-.85-1.938-1.21-3.099-1.227-1.288-.018-2.53.367-3.447 1.3a4.474 4.474 0 0 0-1.13 2.02c-.423 1.615-.257 3.526-.258 5.192a447.39 447.39 0 0 0 .031 6.46L8.04 30.3C8 21.993 8.207 13.65 8 5.347zM119.606 12.157c.314-.014.628-.024.942-.028 1.814-.018 3.633.477 4.945 1.783.855.85 1.385 1.947 1.662 3.11.466 1.96.292 4.088.29 6.09l.002 7.194-3.368-.004c.033-1.621.001-3.25.011-4.874.012-2.06.272-5.24-.272-7.153-.301-1.054-.922-2.023-1.917-2.54-1.227-.637-2.872-.478-4.15-.07-.516.266-.966.542-1.386.956-.671.662-.971 1.442-1.167 2.343-.342 1.576-.216 3.292-.215 4.897l.012 6.451c-1.11-.02-2.221-.006-3.331-.006.092-5.93.012-11.878.016-17.812l3.31-.004c.006.848-.006 1.697-.008 2.545 1.202-1.754 2.601-2.43 4.624-2.878zM54.25 12.153c.662-.03 1.327-.02 1.989-.022.023 1.206.005 2.415.004 3.621-.25-.01-.501-.017-.752-.024-1.507-.037-3.138.159-4.261 1.278-.595.593-.957 1.368-1.149 2.178-.365 1.534-.246 3.233-.247 4.8l.02 6.319c-.654.002-2.767.24-3.313-.13l-.028-.334c-.125-5.765-.028-11.563.008-17.33l3.377-.019c-.095.944-.047 1.906-.026 2.853 1.271-1.886 2.082-2.63 4.378-3.19zM131.315 12.5c1.111.007 2.222.007 3.333 0v17.806a98.917 98.917 0 0 0-3.349.019c.074-5.94.017-11.886.016-17.826zM132.295 5.342c.41-.023.861-.072 1.262.024a2.09 2.09 0 0 1 1.309 1.011c.255.489.293 1.062.105 1.58-.255.684-.75 1.035-1.386 1.33-.429.026-.858.048-1.274-.082a2.147 2.147 0 0 1-1.277-1.073 1.872 1.872 0 0 1-.092-1.44c.24-.68.735-1.041 1.353-1.35z" fill="#649179"/></svg>