<!-- Generated by IcoMoon.io -->
<svg version="1.1" xmlns="http://www.w3.org/2000/svg" width="38" height="32" viewBox="0 0 38 32">
<path fill="none" stroke-linejoin="miter" stroke-linecap="butt" stroke-miterlimit="4" stroke-width="1.0492" stroke="#000" d="M25.833 18.324c0 3.209-3.111 5.81-6.948 5.81s-6.948-2.601-6.948-5.81c0-3.209 3.111-5.81 6.948-5.81s6.948 2.601 6.948 5.81z"></path>
<path fill="none" stroke-linejoin="miter" stroke-linecap="butt" stroke-miterlimit="4" stroke-width="1.0492" stroke="#000" d="M0.82 26.336v-14.161c0-2.38 2.307-4.309 5.153-4.309 1.951 0 3.736-0.922 4.609-2.382l1.168-1.954c0.966-1.616 2.942-2.637 5.103-2.637h4.066c2.161 0 4.136 1.021 5.103 2.637l1.168 1.953c0.873 1.46 2.658 2.382 4.609 2.382 2.846 0 5.154 1.929 5.154 4.309v14.161c0 2.634-2.555 4.771-5.705 4.771h-24.721c-3.151 0-5.705-2.136-5.705-4.771z"></path>
</svg>
