<svg aria-hidden="true" style="position: absolute; width: 0; height: 0; overflow: hidden;" version="1.1" xmlns="http://www.w3.org/2000/svg" xmlns:xlink="http://www.w3.org/1999/xlink">
<defs>


  <symbol   fill="none" xmlns="http://www.w3.org/2000/svg" viewBox="0 0 32 32" id="icon-eye-icon-xs, Type=stroke, Size=32px (1)">
    <path d="M15.6538 11.9091C10.8745 11.9091 7 16.5303 7 17.7045C7 18.8787 10.8745 23.5 15.6538 23.5C20.4332 23.5 24.3077 18.8787 24.3077 17.7045C24.3077 16.5303 20.4332 11.9091 15.6538 11.9091ZM15.6538 11.9091C13.5509 11.9091 11.8462 13.588 11.8462 15.6591C11.8462 17.7301 13.551 19.4091 15.6539 19.4091C17.7568 19.4091 19.4616 17.7301 19.4616 15.6591C19.4616 13.588 17.7568 11.9091 15.6538 11.9091ZM25 11.9091C22.3642 9.74337 19.2869 8.5 16 8.5C12.7131 8.5 9.63584 9.74337 7 11.9091" stroke="#070721" stroke-linecap="round"></path>
  </symbol>


  <symbol  fill="none" xmlns="http://www.w3.org/2000/svg" viewBox="0 0 32 32" id="icon-eye-icon-off-xs, Type=stroke, Size=32px (2)">
    <path d="M19.2143 22.6499C18.1284 23.1542 16.9231 23.4824 15.654 23.4824C10.8746 23.4824 7.00023 18.8276 7.00023 17.6449C7.00023 16.9745 8.24509 15.1885 10.194 13.767M23.2693 19.5157C23.9316 18.7189 24.3077 18.0134 24.3077 17.6449C24.3077 16.4621 20.4333 11.8074 15.654 11.8074C17.7569 11.8074 19.4616 13.4985 19.4616 15.5846M15.6539 19.3618C13.551 19.3618 11.8463 17.6707 11.8463 15.5846M25 11.8075C22.3642 9.62606 19.287 8.37366 16.0001 8.37366C14.8154 8.37366 13.658 8.53636 12.5386 8.84662M7.00023 11.8075C7.24455 11.6053 7.49267 11.4111 7.7444 11.2251M7 7.00006L23.7141 23.8749" stroke="#070721" stroke-linecap="round"></path>
  </symbol>





<symbol  viewBox="0 0 32 32">
<path stroke-linejoin="miter" stroke-linecap="round" stroke-miterlimit="4" stroke-width="2" d="M15.654 11.909c-4.779 0-8.654 4.621-8.654 5.795s3.874 5.795 8.654 5.795c4.779 0 8.654-4.621 8.654-5.795s-3.874-5.795-8.654-5.795zM15.654 11.909c-2.103 0-3.808 1.679-3.808 3.75s1.705 3.75 3.808 3.75c2.103 0 3.808-1.679 3.808-3.75s-1.705-3.75-3.808-3.75zM25 11.909c-2.636-2.166-5.713-3.409-9-3.409s-6.364 1.243-9 3.409"></path>
</symbol>
<symbol id="icon-eye-icon-md"  viewBox="0 0 32 32">
<path stroke-linejoin="miter" stroke-linecap="round" stroke-miterlimit="4" stroke-width="1.3333" d="M19.214 22.65c-1.086 0.504-2.291 0.833-3.56 0.833-4.779 0-8.654-4.655-8.654-5.837 0-0.671 1.245-2.456 3.194-3.878M23.269 19.516c0.662-0.797 1.038-1.502 1.038-1.871 0-1.183-3.874-5.838-8.654-5.838 2.103 0 3.808 1.691 3.808 3.777M15.654 19.362c-2.103 0-3.808-1.691-3.808-3.777M25 11.807c-2.636-2.181-5.713-3.434-9-3.434-1.185 0-2.342 0.163-3.462 0.473M7 11.807c0.244-0.202 0.492-0.396 0.744-0.582M7 7l16.714 16.875"></path>
</symbol>
<symbol id="icon-eye-icon-off-md" viewBox="0 0 32 32">
<path stroke-linejoin="miter" stroke-linecap="round" stroke-miterlimit="4" stroke-width="1.3333" d="M15.654 11.909c-4.779 0-8.654 4.621-8.654 5.795s3.874 5.795 8.654 5.795c4.779 0 8.654-4.621 8.654-5.795s-3.875-5.795-8.654-5.795zM15.654 11.909c-2.103 0-3.808 1.679-3.808 3.75s1.705 3.75 3.808 3.75c2.103 0 3.808-1.679 3.808-3.75s-1.705-3.75-3.808-3.75zM25 11.909c-2.636-2.166-5.713-3.409-9-3.409s-6.364 1.243-9 3.409"></path>
</symbol>
<symbol  id="icon-eye-icon-lp"   viewBox="0 0 32 32">
<path stroke-linejoin="miter" stroke-linecap="round" stroke-miterlimit="4" stroke-width="1" d="M19.214 22.65c-1.086 0.504-2.291 0.832-3.56 0.832-4.779 0-8.654-4.655-8.654-5.838 0-0.67 1.245-2.456 3.194-3.878M23.269 19.516c0.662-0.797 1.038-1.502 1.038-1.871 0-1.183-3.874-5.838-8.654-5.838 2.103 0 3.808 1.691 3.808 3.777M15.654 19.362c-2.103 0-3.808-1.691-3.808-3.777M25 11.807c-2.636-2.181-5.713-3.434-9-3.434-1.185 0-2.342 0.163-3.462 0.473M7 11.807c0.244-0.202 0.492-0.396 0.744-0.582M7 7l16.714 16.875"></path>
</symbol>
<symbol id="icon-eye-icon-off-lp" viewBox="0 0 32 32">
<path stroke-linejoin="miter" stroke-linecap="round" stroke-miterlimit="4" stroke-width="1" d="M15.654 11.909c-4.779 0-8.654 4.621-8.654 5.795s3.874 5.796 8.654 5.796c4.779 0 8.654-4.621 8.654-5.796s-3.875-5.795-8.654-5.795zM15.654 11.909c-2.103 0-3.808 1.679-3.808 3.75s1.705 3.75 3.808 3.75 3.808-1.679 3.808-3.75c0-2.071-1.705-3.75-3.808-3.75zM25 11.909c-2.636-2.166-5.713-3.409-9-3.409s-6.364 1.243-9 3.409"></path>
</symbol>
</defs>
</svg>
