<svg width="15" height="23" viewBox="0 0 15 23" fill="none" xmlns="http://www.w3.org/2000/svg">
<path d="M6.21252 0.0405904C6.70466 -0.0138348 7.24593 -0.00884514 7.74104 0.0279347C9.67236 0.171629 11.0728 1.0262 12.311 2.47238C12.2737 1.74564 12.2321 1.02918 12.2737 0.301399C13.1039 0.246378 13.9437 0.272436 14.7761 0.27467L14.7746 10.5399C14.7783 12.5978 14.9593 14.8135 14.6034 16.8394C14.3986 18.009 13.9884 19.1586 13.2617 20.1086C12.273 21.4019 11.0259 21.9342 9.449 22.1367C10.0186 21.4577 10.5643 20.769 11.0192 20.0073C12.203 17.5176 12.2224 15.0942 12.2566 12.4034C11.2187 13.6349 10.1198 14.4628 8.50493 14.7629C6.60117 15.1143 4.6356 14.6966 3.03933 13.6007C1.48624 12.5248 0.446138 10.7327 0.123756 8.88703C-0.231385 6.85446 0.175873 4.65676 1.37084 2.96086C2.56656 1.2646 4.20452 0.393647 6.21252 0.0405904ZM8.4625 12.2903C11.122 11.7408 12.8292 9.13347 12.2685 6.4755C11.7087 3.81797 9.0946 2.12178 6.43886 2.69261C3.79875 3.26024 2.11388 5.85605 2.67079 8.49913C3.22845 11.1415 5.81718 12.8368 8.4625 12.2903Z" fill="#649179"/>
</svg>
